solid Visualization Toolkit generated SLA File
 facet normal 0 0 -1
  outer loop
   vertex 7.5 -10 -13
   vertex -7.5 -10 -13
   vertex 7.5 10 -13
  endloop
 endfacet
 facet normal 0 0 -1
  outer loop
   vertex 7.5 10 -13
   vertex -7.5 -10 -13
   vertex -7.5 10 -13
  endloop
 endfacet
 facet normal 1 0 0
  outer loop
   vertex 7.5 -10 13
   vertex 7.5 -10 -13
   vertex 7.5 10 13
  endloop
 endfacet
 facet normal 1 0 0
  outer loop
   vertex 7.5 10 13
   vertex 7.5 -10 -13
   vertex 7.5 10 -13
  endloop
 endfacet
 facet normal 0 0 1
  outer loop
   vertex -7.5 -10 13
   vertex 7.5 -10 13
   vertex -7.5 10 13
  endloop
 endfacet
 facet normal 0 -0 1
  outer loop
   vertex -7.5 10 13
   vertex 7.5 -10 13
   vertex 7.5 10 13
  endloop
 endfacet
 facet normal -1 0 0
  outer loop
   vertex -7.5 -10 -13
   vertex -7.5 -10 13
   vertex -7.5 10 -13
  endloop
 endfacet
 facet normal -1 0 0
  outer loop
   vertex -7.5 10 -13
   vertex -7.5 -10 13
   vertex -7.5 10 13
  endloop
 endfacet
 facet normal 0 1 0
  outer loop
   vertex -7.5 10 -13
   vertex -7.5 10 13
   vertex 7.5 10 -13
  endloop
 endfacet
 facet normal -0 1 0
  outer loop
   vertex 7.5 10 -13
   vertex -7.5 10 13
   vertex 7.5 10 13
  endloop
 endfacet
 facet normal 0 -1 0
  outer loop
   vertex -7.5 -10 -13
   vertex 7.5 -10 -13
   vertex -7.5 -10 13
  endloop
 endfacet
 facet normal 0 -1 0
  outer loop
   vertex -7.5 -10 13
   vertex 7.5 -10 -13
   vertex 7.5 -10 13
  endloop
 endfacet
endsolid
